# MagicaVoxel @ ephtracy

# material
mtllib seagullGrayBox.mtl
usemtl palette

# normals
vn -1 0 0
vn 1 0 0
vn 0 0 1
vn 0 0 -1
vn 0 -1 0
vn 0 1 0

# texcoords
vt 0.0605469 0.5
vt 0.962891 0.5
vt 0.994141 0.5

# verts
v -4.5 6 0.5
v -4.5 6 -0.5
v -4.5 7 0.5
v -4.5 7 -0.5
v -3.5 3 1.5
v -3.5 3 -1.5
v -3.5 5 1.5
v -3.5 5 0.5
v -3.5 5 -0.5
v -3.5 5 -1.5
v -3.5 6 0.5
v -3.5 6 -0.5
v -3.5 7 0.5
v -3.5 7 -0.5
v -3.5 8 0.5
v -3.5 8 -0.5
v -2.5 0 1.5
v -2.5 0 0.5
v -2.5 0 -0.5
v -2.5 0 -1.5
v -2.5 1 1.5
v -2.5 1 0.5
v -2.5 1 -0.5
v -2.5 1 -1.5
v -2.5 5 1.5
v -2.5 5 0.5
v -2.5 5 -0.5
v -2.5 5 -1.5
v -2.5 6 1.5
v -2.5 6 0.5
v -2.5 6 -0.5
v -2.5 6 -1.5
v -1.5 1 1.5
v -1.5 1 0.5
v -1.5 1 -0.5
v -1.5 1 -1.5
v -1.5 3 1.5
v -1.5 3 0.5
v -1.5 3 -0.5
v -1.5 3 -1.5
v -2.5 6 0.5
v -2.5 6 -0.5
v -2.5 7 0.5
v -2.5 7 -0.5
v -2.5 8 0.5
v -2.5 8 -0.5
v -0.5 0 1.5
v -0.5 0 0.5
v -0.5 0 -0.5
v -0.5 0 -1.5
v -0.5 1 1.5
v -0.5 1 0.5
v -0.5 1 -0.5
v -0.5 1 -1.5
v -0.5 3 1.5
v -0.5 3 0.5
v -0.5 3 -0.5
v -0.5 3 -1.5
v 0.5 5 1.5
v 0.5 5 0.5
v 0.5 5 -0.5
v 0.5 5 -1.5
v 0.5 6 1.5
v 0.5 6 0.5
v 0.5 6 -0.5
v 0.5 6 -1.5
v 1.5 3 1.5
v 1.5 3 0.5
v 1.5 3 -0.5
v 1.5 3 -1.5
v 1.5 4 1.5
v 1.5 4 0.5
v 1.5 4 -0.5
v 1.5 4 -1.5
v 2.5 3 0.5
v 2.5 3 -0.5
v 2.5 4 1.5
v 2.5 4 0.5
v 2.5 4 -0.5
v 2.5 4 -1.5
v 2.5 5 1.5
v 2.5 5 0.5
v 2.5 5 -0.5
v 2.5 5 -1.5
v 2.5 6 0.5
v 2.5 6 -0.5
v 4.5 4 0.5
v 4.5 4 -0.5
v 4.5 5 0.5
v 4.5 5 -0.5
v -3.5 3 1.5
v -3.5 5 1.5
v -2.5 0 1.5
v -2.5 1 1.5
v -2.5 5 1.5
v -2.5 6 1.5
v -1.5 1 1.5
v -1.5 3 1.5
v -0.5 0 1.5
v -0.5 1 1.5
v -0.5 3 1.5
v 0.5 4 1.5
v 0.5 5 1.5
v 0.5 6 1.5
v 1.5 3 1.5
v 1.5 4 1.5
v 2.5 4 1.5
v 2.5 5 1.5
v -4.5 6 0.5
v -4.5 7 0.5
v -3.5 5 0.5
v -3.5 6 0.5
v -3.5 7 0.5
v -3.5 8 0.5
v -2.5 5 0.5
v -2.5 6 0.5
v -2.5 7 0.5
v -2.5 8 0.5
v 0.5 5 0.5
v 0.5 6 0.5
v 1.5 3 0.5
v 1.5 4 0.5
v 1.5 5 0.5
v 1.5 6 0.5
v 2.5 3 0.5
v 2.5 4 0.5
v 2.5 5 0.5
v 2.5 6 0.5
v 4.5 4 0.5
v 4.5 5 0.5
v -2.5 0 -0.5
v -2.5 1 -0.5
v -1.5 1 -0.5
v -1.5 3 -0.5
v -0.5 0 -0.5
v -0.5 1 -0.5
v -0.5 3 -0.5
v -2.5 0 0.5
v -2.5 1 0.5
v -1.5 1 0.5
v -1.5 3 0.5
v -0.5 0 0.5
v -0.5 1 0.5
v -0.5 3 0.5
v -4.5 6 -0.5
v -4.5 7 -0.5
v -3.5 5 -0.5
v -3.5 6 -0.5
v -3.5 7 -0.5
v -3.5 8 -0.5
v -2.5 5 -0.5
v -2.5 6 -0.5
v -2.5 7 -0.5
v -2.5 8 -0.5
v 0.5 5 -0.5
v 0.5 6 -0.5
v 1.5 3 -0.5
v 1.5 4 -0.5
v 1.5 5 -0.5
v 1.5 6 -0.5
v 2.5 3 -0.5
v 2.5 4 -0.5
v 2.5 5 -0.5
v 2.5 6 -0.5
v 4.5 4 -0.5
v 4.5 5 -0.5
v -3.5 3 -1.5
v -3.5 5 -1.5
v -2.5 0 -1.5
v -2.5 1 -1.5
v -2.5 5 -1.5
v -2.5 6 -1.5
v -1.5 1 -1.5
v -1.5 3 -1.5
v -0.5 0 -1.5
v -0.5 1 -1.5
v -0.5 3 -1.5
v -0.5 4 -1.5
v -0.5 5 -1.5
v 0.5 5 -1.5
v 0.5 6 -1.5
v 1.5 3 -1.5
v 1.5 4 -1.5
v 2.5 4 -1.5
v 2.5 5 -1.5
v -2.5 0 1.5
v -0.5 0 1.5
v -2.5 0 0.5
v -0.5 0 0.5
v -2.5 0 -0.5
v -0.5 0 -0.5
v -2.5 0 -1.5
v -0.5 0 -1.5
v -3.5 3 1.5
v -1.5 3 1.5
v -0.5 3 1.5
v 1.5 3 1.5
v -1.5 3 0.5
v -0.5 3 0.5
v 1.5 3 0.5
v 2.5 3 0.5
v -1.5 3 -0.5
v -0.5 3 -0.5
v 1.5 3 -0.5
v 2.5 3 -0.5
v -3.5 3 -1.5
v -1.5 3 -1.5
v -0.5 3 -1.5
v 1.5 3 -1.5
v 1.5 4 1.5
v 2.5 4 1.5
v 1.5 4 0.5
v 2.5 4 0.5
v 4.5 4 0.5
v 1.5 4 -0.5
v 2.5 4 -0.5
v 4.5 4 -0.5
v 1.5 4 -1.5
v 2.5 4 -1.5
v -4.5 6 0.5
v -3.5 6 0.5
v -4.5 6 -0.5
v -3.5 6 -0.5
v -2.5 1 1.5
v -1.5 1 1.5
v -2.5 1 0.5
v -1.5 1 0.5
v -2.5 1 -0.5
v -1.5 1 -0.5
v -2.5 1 -1.5
v -1.5 1 -1.5
v -3.5 5 1.5
v -2.5 5 1.5
v 0.5 5 1.5
v 2.5 5 1.5
v -3.5 5 0.5
v -2.5 5 0.5
v 0.5 5 0.5
v 1.5 5 0.5
v 2.5 5 0.5
v 4.5 5 0.5
v -3.5 5 -0.5
v -2.5 5 -0.5
v 0.5 5 -0.5
v 1.5 5 -0.5
v 2.5 5 -0.5
v 4.5 5 -0.5
v -3.5 5 -1.5
v -2.5 5 -1.5
v 0.5 5 -1.5
v 2.5 5 -1.5
v -2.5 6 1.5
v 0.5 6 1.5
v -2.5 6 0.5
v 0.5 6 0.5
v 1.5 6 0.5
v 2.5 6 0.5
v -2.5 6 -0.5
v 0.5 6 -0.5
v 1.5 6 -0.5
v 2.5 6 -0.5
v -2.5 6 -1.5
v 0.5 6 -1.5
v -4.5 7 0.5
v -3.5 7 0.5
v -4.5 7 -0.5
v -3.5 7 -0.5
v -3.5 8 0.5
v -2.5 8 0.5
v -3.5 8 -0.5
v -2.5 8 -0.5

# faces
f 3/1/1 2/1/1 1/1/1
f 4/1/1 2/1/1 3/1/1
f 7/2/1 6/2/1 5/2/1
f 8/2/1 6/2/1 7/2/1
f 9/2/1 6/2/1 8/2/1
f 10/2/1 6/2/1 9/2/1
f 11/2/1 9/2/1 8/2/1
f 12/2/1 9/2/1 11/2/1
f 15/3/1 14/3/1 13/3/1
f 16/3/1 14/3/1 15/3/1
f 21/3/1 18/3/1 17/3/1
f 22/3/1 18/3/1 21/3/1
f 23/3/1 20/3/1 19/3/1
f 24/3/1 20/3/1 23/3/1
f 29/2/1 26/2/1 25/2/1
f 30/2/1 26/2/1 29/2/1
f 31/2/1 28/2/1 27/2/1
f 32/2/1 28/2/1 31/2/1
f 37/1/1 34/1/1 33/1/1
f 38/1/1 34/1/1 37/1/1
f 39/1/1 36/1/1 35/1/1
f 40/1/1 36/1/1 39/1/1
f 41/2/2 42/2/2 43/2/2
f 43/2/2 42/2/2 44/2/2
f 43/3/2 44/3/2 45/3/2
f 45/3/2 44/3/2 46/3/2
f 47/3/2 48/3/2 51/3/2
f 51/3/2 48/3/2 52/3/2
f 49/3/2 50/3/2 53/3/2
f 53/3/2 50/3/2 54/3/2
f 51/1/2 52/1/2 55/1/2
f 55/1/2 52/1/2 56/1/2
f 53/1/2 54/1/2 57/1/2
f 57/1/2 54/1/2 58/1/2
f 59/2/2 60/2/2 63/2/2
f 63/2/2 60/2/2 64/2/2
f 61/2/2 62/2/2 65/2/2
f 65/2/2 62/2/2 66/2/2
f 67/2/2 68/2/2 71/2/2
f 71/2/2 68/2/2 72/2/2
f 69/2/2 70/2/2 73/2/2
f 73/2/2 70/2/2 74/2/2
f 75/3/2 76/3/2 78/3/2
f 78/3/2 76/3/2 79/3/2
f 77/3/2 78/3/2 81/3/2
f 81/3/2 78/3/2 82/3/2
f 79/3/2 80/3/2 83/3/2
f 83/3/2 80/3/2 84/3/2
f 82/3/2 83/3/2 85/3/2
f 85/3/2 83/3/2 86/3/2
f 87/3/2 88/3/2 89/3/2
f 89/3/2 88/3/2 90/3/2
f 95/2/3 92/2/3 91/2/3
f 97/3/3 94/3/3 93/3/3
f 98/2/3 96/2/3 95/2/3
f 98/2/3 95/2/3 91/2/3
f 99/3/3 97/3/3 93/3/3
f 100/1/3 98/1/3 97/1/3
f 100/3/3 97/3/3 99/3/3
f 101/2/3 96/2/3 98/2/3
f 101/1/3 98/1/3 100/1/3
f 102/2/3 96/2/3 101/2/3
f 103/2/3 96/2/3 102/2/3
f 104/2/3 96/2/3 103/2/3
f 105/2/3 102/2/3 101/2/3
f 106/3/3 103/3/3 102/3/3
f 106/2/3 102/2/3 105/2/3
f 107/3/3 103/3/3 106/3/3
f 108/3/3 103/3/3 107/3/3
f 112/1/3 110/1/3 109/1/3
f 113/1/3 110/1/3 112/1/3
f 115/2/3 112/2/3 111/2/3
f 115/2/3 113/2/3 112/2/3
f 116/2/3 113/2/3 115/2/3
f 117/3/3 114/3/3 113/3/3
f 117/2/3 113/2/3 116/2/3
f 118/3/3 114/3/3 117/3/3
f 123/2/3 120/2/3 119/2/3
f 124/2/3 120/2/3 123/2/3
f 125/3/3 122/3/3 121/3/3
f 126/3/3 122/3/3 125/3/3
f 127/3/3 124/3/3 123/3/3
f 128/3/3 124/3/3 127/3/3
f 129/3/3 127/3/3 126/3/3
f 130/3/3 127/3/3 129/3/3
f 133/3/3 132/3/3 131/3/3
f 135/3/3 133/3/3 131/3/3
f 136/1/3 134/1/3 133/1/3
f 136/3/3 133/3/3 135/3/3
f 137/1/3 134/1/3 136/1/3
f 138/3/4 139/3/4 140/3/4
f 138/3/4 140/3/4 142/3/4
f 140/1/4 141/1/4 143/1/4
f 142/3/4 140/3/4 143/3/4
f 143/1/4 141/1/4 144/1/4
f 145/1/4 146/1/4 148/1/4
f 148/1/4 146/1/4 149/1/4
f 147/2/4 148/2/4 151/2/4
f 148/2/4 149/2/4 151/2/4
f 151/2/4 149/2/4 152/2/4
f 149/3/4 150/3/4 153/3/4
f 152/2/4 149/2/4 153/2/4
f 153/3/4 150/3/4 154/3/4
f 155/2/4 156/2/4 159/2/4
f 159/2/4 156/2/4 160/2/4
f 157/3/4 158/3/4 161/3/4
f 161/3/4 158/3/4 162/3/4
f 159/3/4 160/3/4 163/3/4
f 163/3/4 160/3/4 164/3/4
f 162/3/4 163/3/4 165/3/4
f 165/3/4 163/3/4 166/3/4
f 167/2/4 168/2/4 171/2/4
f 169/3/4 170/3/4 173/3/4
f 171/2/4 172/2/4 174/2/4
f 167/2/4 171/2/4 174/2/4
f 169/3/4 173/3/4 175/3/4
f 173/1/4 174/1/4 176/1/4
f 175/3/4 173/3/4 176/3/4
f 174/2/4 172/2/4 177/2/4
f 176/1/4 174/1/4 177/1/4
f 177/2/4 172/2/4 178/2/4
f 178/2/4 172/2/4 179/2/4
f 179/2/4 172/2/4 180/2/4
f 178/3/4 179/3/4 180/3/4
f 180/2/4 172/2/4 181/2/4
f 177/2/4 178/2/4 182/2/4
f 178/3/4 180/3/4 183/3/4
f 182/2/4 178/2/4 183/2/4
f 183/3/4 180/3/4 184/3/4
f 184/3/4 180/3/4 185/3/4
f 188/3/5 187/3/5 186/3/5
f 189/3/5 187/3/5 188/3/5
f 192/3/5 191/3/5 190/3/5
f 193/3/5 191/3/5 192/3/5
f 198/2/5 195/2/5 194/2/5
f 199/2/5 197/2/5 196/2/5
f 200/2/5 197/2/5 199/2/5
f 202/2/5 198/2/5 194/2/5
f 202/2/5 199/2/5 198/2/5
f 202/2/5 200/2/5 199/2/5
f 203/2/5 200/2/5 202/2/5
f 204/3/5 201/3/5 200/3/5
f 204/2/5 200/2/5 203/2/5
f 205/3/5 201/3/5 204/3/5
f 206/2/5 202/2/5 194/2/5
f 207/2/5 202/2/5 206/2/5
f 208/2/5 204/2/5 203/2/5
f 209/2/5 204/2/5 208/2/5
f 212/3/5 211/3/5 210/3/5
f 213/3/5 211/3/5 212/3/5
f 216/3/5 214/3/5 213/3/5
f 217/3/5 214/3/5 216/3/5
f 218/3/5 216/3/5 215/3/5
f 219/3/5 216/3/5 218/3/5
f 222/1/5 221/1/5 220/1/5
f 223/1/5 221/1/5 222/1/5
f 224/3/6 225/3/6 226/3/6
f 226/3/6 225/3/6 227/3/6
f 228/3/6 229/3/6 230/3/6
f 230/3/6 229/3/6 231/3/6
f 232/2/6 233/2/6 236/2/6
f 236/2/6 233/2/6 237/2/6
f 234/3/6 235/3/6 238/3/6
f 238/3/6 235/3/6 239/3/6
f 239/3/6 235/3/6 240/3/6
f 240/3/6 241/3/6 246/3/6
f 246/3/6 241/3/6 247/3/6
f 242/2/6 243/2/6 248/2/6
f 248/2/6 243/2/6 249/2/6
f 244/3/6 245/3/6 250/3/6
f 245/3/6 246/3/6 250/3/6
f 250/3/6 246/3/6 251/3/6
f 252/2/6 253/2/6 254/2/6
f 254/2/6 253/2/6 255/2/6
f 254/2/6 255/2/6 258/2/6
f 255/2/6 256/2/6 258/2/6
f 258/2/6 256/2/6 259/2/6
f 256/3/6 257/3/6 260/3/6
f 259/2/6 256/2/6 260/2/6
f 260/3/6 257/3/6 261/3/6
f 258/2/6 259/2/6 262/2/6
f 262/2/6 259/2/6 263/2/6
f 264/1/6 265/1/6 266/1/6
f 266/1/6 265/1/6 267/1/6
f 268/3/6 269/3/6 270/3/6
f 270/3/6 269/3/6 271/3/6
